<?xml version="1.0" encoding="UTF-8"?>
<svg width="50px" height="50px" viewBox="0 0 50 50" version="1.1" xmlns="http://www.w3.org/2000/svg" xmlns:xlink="http://www.w3.org/1999/xlink">
    <!-- Generator: Sketch 49.2 (51160) - http://www.bohemiancoding.com/sketch -->
    <title>Group</title>
    <desc>Created with Sketch.</desc>
    <defs></defs>
    <g id="Page-1" stroke="none" stroke-width="1" fill="none" fill-rule="evenodd">
        <g id="Mobile">
            <g id="Group">
                <g id="Page-1">
                    <path d="M25,50 C38.807125,50 50,38.807125 50,25 C50,11.192875 38.807125,0 25,0 C11.192875,0 0,11.192875 0,25 C0,38.807125 11.192875,50 25,50" id="Fill-1" fill="#D6001C"></path>
                    <path d="M14.2196063,13.71765 L14.2196063,22.221525 C15.5137312,20.6784625 17.0656688,19.9009625 18.8656688,19.9009625 C19.7931063,19.9009625 20.6235437,20.0774625 21.3676687,20.4294 C22.1147312,20.7784625 22.6735438,21.2264625 23.0499813,21.76965 C23.4294187,22.31865 23.6852937,22.9195875 23.8235437,23.5823375 C23.9617937,24.24115 24.0304188,25.26765 24.0304188,26.6588375 L24.0304188,35.7519625 L20.0068562,35.7519625 L20.0068562,27.5627125 C20.0068562,25.937275 19.9343563,24.9078375 19.7813563,24.4705875 C19.6284188,24.0304 19.3597938,23.6843375 18.9735438,23.4294 C18.5862937,23.16765 18.1039187,23.0382125 17.5216063,23.0382125 C16.8559188,23.0382125 16.2568562,23.2059 15.7372313,23.536275 C15.2068562,23.8695875 14.8244812,24.36765 14.5833562,25.0333375 C14.3372313,25.700025 14.2147312,26.6843375 14.2196063,27.9872125 L14.2147312,35.7519625 L10.1970437,35.7519625 L10.1970437,13.71765 L14.2196063,13.71765" id="Fill-3" fill="#FEFEFE"></path>
                    <path d="M30.0598125,13.71765 L30.0598125,22.221525 C31.3549375,20.6784625 32.905875,19.9009625 34.705875,19.9009625 C35.629375,19.9009625 36.46475,20.0774625 37.2118125,20.4294 C37.954875,20.7784625 38.51375,21.2264625 38.88925,21.76965 C39.268625,22.31865 39.5255,22.9195875 39.6626875,23.5823375 C39.8009375,24.24115 39.869625,25.26765 39.869625,26.6588375 L39.869625,35.7519625 L35.8509375,35.7519625 L35.8509375,27.5627125 C35.8509375,25.937275 35.7755,24.9078375 35.6215625,24.4705875 C35.468625,24.0304 35.201,23.6843375 34.81275,23.4294 C34.429375,23.16765 33.943125,23.0382125 33.36075,23.0382125 C32.695125,23.0382125 32.0970625,23.2059 31.5765,23.536275 C31.0519375,23.8695875 30.668625,24.36765 30.4235,25.0333375 C30.182375,25.700025 30.0598125,26.6843375 30.0598125,27.9872125 L30.0598125,35.7519625 L26.0411875,35.7519625 L26.0411875,13.71765 L30.0598125,13.71765" id="Fill-5" fill="#FEFEFE"></path>
                </g>
            </g>
        </g>
    </g>
</svg>